<svg width="57" height="71" viewBox="0 0 57 71" fill="none" xmlns="http://www.w3.org/2000/svg">
<path d="M50.3748 28.4168C50.3741 16.375 40.5625 6.60006 28.5 6.60006C16.4377 6.60006 6.62587 16.3748 6.62524 28.3991C6.58747 36.4426 10.5717 44.0293 15.2346 50.1537C19.9041 56.2869 25.3002 61.014 28.1855 63.3485L28.4998 63.6027L28.8142 63.3487C31.7015 61.0159 37.0977 56.2905 41.7667 50.16C46.4291 44.0382 50.4125 36.4551 50.3748 28.4168ZM50.3748 28.4168C50.3748 28.4172 50.3748 28.4176 50.3748 28.418H49.8748L50.3748 28.4156C50.3748 28.416 50.3748 28.4164 50.3748 28.4168ZM26.7237 69.9329L26.7218 69.9316C26.1977 69.5621 19.5998 64.8197 13.1511 57.3289C6.69316 49.8273 0.449467 39.6444 0.500314 28.3847V28.3825C0.500314 13.019 13.0603 0.5 28.5 0.5C43.9395 0.5 56.4997 13.0188 56.4997 28.4002L56.4997 28.4025C56.5505 39.6531 50.3069 49.8316 43.8489 57.3311C37.4002 64.8197 30.8024 69.5621 30.2782 69.9315L30.2763 69.9329C29.7582 70.3016 29.1371 70.5 28.5 70.5C27.8629 70.5 27.2419 70.3016 26.7237 69.9329ZM42.5 28C42.5 35.4285 36.2373 41.5 28.5 41.5C20.7627 41.5 14.5 35.4285 14.5 28C14.5 20.5715 20.7627 14.5 28.5 14.5C36.2373 14.5 42.5 20.5715 42.5 28ZM36.25 28C36.25 23.847 32.7578 20.5 28.5 20.5C24.2422 20.5 20.75 23.847 20.75 28C20.75 32.153 24.2422 35.5 28.5 35.5C32.7578 35.5 36.25 32.153 36.25 28ZM30.5662 70.3403C31.6492 69.577 57.103 51.2624 56.9997 28.4002L26.4338 70.3403C27.0367 70.7693 27.7591 71 28.5 71C29.2409 71 29.9633 70.7693 30.5662 70.3403Z" fill="white" stroke="black"/>
</svg>
